<svg width="61" height="14" viewBox="0 0 61 14" fill="none" xmlns="http://www.w3.org/2000/svg">
<g clip-path="url(#clip0_75_9025)">
<path d="M22.2234 0.801117H24.5114L28.4019 7.83866L32.2923 0.801123H34.5308V12.3651H32.664V3.50218L29.2526 9.63937H27.5015L24.0901 3.50218V12.3651H22.2234V0.801117Z" fill="white"/>
<path d="M40.5521 12.5731C39.6875 12.5731 38.9275 12.3818 38.2723 11.999C37.617 11.6163 37.1062 11.0863 36.7401 10.409C36.3738 9.73165 36.1907 8.95521 36.1908 8.07968C36.1908 7.19314 36.3698 6.40844 36.7277 5.72557C37.0856 5.04284 37.5826 4.50867 38.2186 4.12307C38.8547 3.73772 39.5857 3.54499 40.4117 3.54488C41.2321 3.54488 41.9383 3.73898 42.5304 4.12719C43.1222 4.51549 43.5779 5.05929 43.8974 5.75859C44.2167 6.45798 44.3764 7.27848 44.3764 8.22009V8.73213H38.041C38.1567 9.43712 38.4417 9.99192 38.896 10.3965C39.3503 10.8013 39.9243 11.0037 40.6181 11.0036C41.1743 11.0036 41.6534 10.921 42.0554 10.7558C42.4573 10.5906 42.8345 10.3401 43.187 10.0042L44.1782 11.2184C43.1924 12.1216 41.9837 12.5732 40.5521 12.5731ZM41.915 5.71312C41.5239 5.31395 41.0118 5.11432 40.3786 5.11425C39.7618 5.11425 39.2456 5.31802 38.8299 5.72556C38.414 6.13307 38.1511 6.68099 38.041 7.36931H42.5841C42.5289 6.66443 42.3059 6.11236 41.915 5.71312Z" fill="white"/>
<path d="M46.6399 5.27981H44.9218V3.75168H46.6399V1.22414H48.4405V3.75168H51.0507V5.27981H48.4405V9.15371C48.4405 9.79793 48.5507 10.2577 48.7709 10.5331C48.9911 10.8085 49.3683 10.9462 49.9026 10.9461C50.1392 10.9461 50.3402 10.9365 50.5055 10.9172C50.6707 10.898 50.8524 10.8718 51.0507 10.8387V12.3503C50.8245 12.4157 50.594 12.4654 50.361 12.499C50.0943 12.5382 49.8251 12.5576 49.5556 12.5568C47.6117 12.5568 46.6398 11.494 46.6399 9.36848V5.27981Z" fill="white"/>
<path d="M60.4343 12.3666H58.6667V11.1606C58.3528 11.6122 57.9536 11.9605 57.469 12.2055C56.9844 12.4504 56.4337 12.573 55.817 12.5731C55.0571 12.5731 54.3839 12.379 53.7975 11.9907C53.211 11.6025 52.7498 11.0684 52.4139 10.3883C52.078 9.70823 51.91 8.93042 51.91 8.05489C51.91 7.17384 52.0808 6.39462 52.4222 5.71724C52.7635 5.03999 53.2357 4.5086 53.8388 4.12307C54.4417 3.73772 55.1342 3.54499 55.9161 3.54488C56.5053 3.54488 57.034 3.65917 57.502 3.88773C57.9638 4.11109 58.3637 4.44433 58.6667 4.85823V3.75143H60.4343V12.3666ZM58.6337 6.76632C58.4409 6.27622 58.1366 5.88935 57.7209 5.60572C57.3051 5.32217 56.8246 5.18039 56.2796 5.18039C55.5086 5.18039 54.8946 5.43919 54.4376 5.95679C53.9805 6.47443 53.752 7.17379 53.752 8.05488C53.752 8.94152 53.9723 9.64363 54.4128 10.1612C54.8533 10.6788 55.4508 10.9376 56.2053 10.9376C56.7614 10.9376 57.2569 10.7944 57.692 10.508C58.127 10.2218 58.4409 9.83639 58.6337 9.35166L58.6337 6.76632Z" fill="white"/>
<path d="M5.326 0.411171C5.32011 0.411171 5.31426 0.411192 5.30838 0.411222L5.2843 2.39969C5.28981 2.39963 5.29531 2.39958 5.30083 2.39958H5.30084C6.60967 2.39958 7.62487 3.43154 9.83142 7.14827L9.96593 7.37454L9.97473 7.38935L11.2099 5.53604L11.2014 5.52172C10.9107 5.04895 10.6314 4.61396 10.3636 4.21675C10.053 3.75653 9.75593 3.3454 9.46764 2.97833C8.00794 1.11976 6.78688 0.411171 5.326 0.411171Z" fill="url(#paint0_linear_75_9025)"/>
<path d="M5.30828 0.411222C3.84031 0.418774 2.54252 1.36802 1.6054 2.82057C1.60265 2.82482 1.59991 2.82908 1.59717 2.83335L3.31736 3.76962C3.32015 3.76539 3.32295 3.76115 3.32576 3.75694C3.87298 2.93302 4.55398 2.40751 5.28421 2.39969C5.28972 2.39963 5.29522 2.39958 5.30074 2.39958L5.32591 0.411171C5.32002 0.411171 5.31417 0.411192 5.30828 0.411222Z" fill="url(#paint1_linear_75_9025)"/>
<path d="M1.60525 2.82172C1.6025 2.82597 1.59976 2.83023 1.59702 2.8345C0.981226 3.79308 0.522172 4.96937 0.274087 6.23838C0.273012 6.24387 0.271941 6.24937 0.270874 6.25487L2.20344 6.71086C2.20444 6.70535 2.20546 6.69984 2.20648 6.69432C2.41304 5.57908 2.80632 4.54473 3.31719 3.77077C3.31999 3.76654 3.32279 3.7623 3.3256 3.75808L1.60525 2.82172Z" fill="url(#paint2_linear_75_9025)"/>
<path d="M2.2066 6.69497L0.274201 6.23902C0.273126 6.24451 0.272055 6.25001 0.270988 6.25551C0.13571 6.95341 0.0668876 7.66256 0.0654437 8.37344C0.0654323 8.37919 0.0654279 8.38494 0.0654303 8.39068L2.04735 8.56799C2.04719 8.56222 2.04703 8.55652 2.04689 8.55073C2.04592 8.5095 2.04542 8.46771 2.04541 8.42536C2.04639 7.85048 2.09932 7.27686 2.20355 6.7115C2.20456 6.70599 2.20557 6.70048 2.2066 6.69497Z" fill="url(#paint3_linear_75_9025)"/>
<path d="M2.10763 9.1836C2.07208 8.97928 2.05193 8.77258 2.04735 8.56525C2.04719 8.55948 2.04703 8.55378 2.04689 8.54799L0.0654437 8.3707C0.0654323 8.37645 0.0654279 8.3822 0.0654303 8.38794V8.38906C0.0654303 8.83149 0.102326 9.24574 0.174032 9.62842C0.175069 9.63396 0.176088 9.63939 0.177141 9.64492L2.11063 9.20015C2.10961 9.19466 2.10862 9.18912 2.10763 9.1836Z" fill="url(#paint4_linear_75_9025)"/>
<path d="M2.55909 10.2118C2.34342 9.97642 2.19079 9.63686 2.11055 9.20259C2.10953 9.19709 2.10854 9.19156 2.10755 9.18604L0.17395 9.63086C0.174987 9.6364 0.176006 9.64183 0.177058 9.64736C0.323207 10.4147 0.609831 11.0542 1.0203 11.538C1.02395 11.5423 1.02761 11.5466 1.03129 11.5509L2.57061 10.2242C2.56676 10.2201 2.5629 10.216 2.55909 10.2118Z" fill="url(#paint5_linear_75_9025)"/>
<path d="M8.28762 4.71004C7.12243 6.49726 6.41657 7.61823 6.41657 7.61823C4.86443 10.0513 4.32748 10.5966 3.46331 10.5966C3.10272 10.5966 2.80148 10.4682 2.57069 10.2228C2.56685 10.2187 2.56298 10.2146 2.55917 10.2104L1.02039 11.5366C1.02404 11.5409 1.0277 11.5452 1.03137 11.5495C1.59814 12.2101 2.39813 12.5767 3.38781 12.5767C4.88512 12.5767 5.96201 11.8708 7.87641 8.52434C7.87641 8.52434 8.67446 7.11507 9.22346 6.1443C8.88339 5.59524 8.57391 5.1199 8.28762 4.71004Z" fill="#0082FB"/>
<path d="M10.3645 1.89059C10.3605 1.89476 10.3565 1.89902 10.3526 1.9032C10.0466 2.22921 9.75297 2.59327 9.46729 2.97954C9.75557 3.34661 10.0532 3.75854 10.3638 4.21876C10.7299 3.65371 11.0716 3.19607 11.4065 2.84531C11.4105 2.84115 11.4144 2.83711 11.4184 2.83298L10.3645 1.89059Z" fill="url(#paint6_linear_75_9025)"/>
<path d="M16.0214 1.71381C15.2088 0.892867 14.2399 0.411171 13.2041 0.411171C12.1119 0.411171 11.1932 1.0097 10.3645 1.889C10.3606 1.89317 10.3566 1.89743 10.3527 1.90161L11.4066 2.84373C11.4106 2.83957 11.4145 2.83553 11.4184 2.8314C11.9643 2.26359 12.4926 1.98009 13.0782 1.98009H13.0782C13.7085 1.98009 14.2987 2.27681 14.8097 2.797C14.8137 2.80108 14.8177 2.80512 14.8217 2.80923L16.0335 1.72603C16.0294 1.72193 16.0254 1.71789 16.0214 1.71381Z" fill="#0082FB"/>
<path d="M18.3705 8.10948C18.325 5.4736 17.4026 3.11715 16.0335 1.72556C16.0294 1.72147 16.0254 1.71742 16.0213 1.71334L14.8097 2.79653C14.8137 2.80061 14.8177 2.80465 14.8217 2.80876C15.8517 3.86677 16.5581 5.83469 16.6224 8.10891C16.6225 8.11464 16.6227 8.12036 16.6229 8.12609L18.3708 8.12665C18.3707 8.12093 18.3706 8.11521 18.3705 8.10948Z" fill="url(#paint7_linear_75_9025)"/>
<path d="M18.3707 8.12848C18.3706 8.12276 18.3706 8.11703 18.3705 8.1113L16.6223 8.11074C16.6225 8.11646 16.6227 8.12219 16.6228 8.12792C16.6257 8.23466 16.6271 8.34204 16.6271 8.45007C16.6271 9.07014 16.5345 9.57137 16.3461 9.93325C16.3433 9.93861 16.3405 9.944 16.3376 9.9493L17.641 11.3048C17.6442 11.2999 17.6474 11.295 17.6506 11.2901C18.1238 10.56 18.3722 9.54575 18.3722 8.31583C18.3722 8.25323 18.3717 8.19078 18.3707 8.12848Z" fill="url(#paint8_linear_75_9025)"/>
<path d="M16.3462 9.93047C16.3434 9.93584 16.3406 9.94123 16.3377 9.94653C16.1747 10.2516 15.9421 10.455 15.6379 10.544L16.2321 12.4165C16.3108 12.3898 16.3874 12.3598 16.4619 12.3265C16.4842 12.3166 16.5062 12.3064 16.5281 12.2959C16.5408 12.2899 16.5533 12.2837 16.5658 12.2775C16.9587 12.0817 17.2907 11.7929 17.5592 11.4208C17.5756 11.3981 17.5919 11.3752 17.6078 11.3518C17.619 11.3354 17.6301 11.3188 17.6411 11.3021C17.6443 11.2971 17.6475 11.2922 17.6507 11.2873L16.3462 9.93047Z" fill="url(#paint9_linear_75_9025)"/>
<path d="M15.2594 10.5947C15.0602 10.5947 14.8844 10.5651 14.7124 10.4882L14.104 12.4053C14.4459 12.5221 14.8107 12.5748 15.2175 12.5748C15.5923 12.5748 15.9363 12.5186 16.2482 12.4106L15.6542 10.5387C15.5261 10.577 15.3931 10.5959 15.2594 10.5947Z" fill="url(#paint10_linear_75_9025)"/>
<path d="M14.0421 9.94117C14.0384 9.93685 14.0346 9.93249 14.0308 9.92811L12.631 11.384C12.6349 11.3882 12.6388 11.3924 12.6427 11.3965C13.1291 11.9149 13.5936 12.2364 14.1203 12.4129L14.7282 10.4972C14.5062 10.4019 14.2916 10.2291 14.0421 9.94117Z" fill="url(#paint11_linear_75_9025)"/>
<path d="M14.031 9.92667C13.6111 9.43836 13.0916 8.62537 12.2746 7.3107L11.2098 5.5349L11.2013 5.52058L9.96582 7.37339L9.97462 7.3882L10.7291 8.65736C11.4604 9.88114 12.0562 10.7665 12.6311 11.3825C12.635 11.3867 12.6389 11.3909 12.6428 11.3951L14.0422 9.93972C14.0385 9.9354 14.0347 9.93105 14.031 9.92667Z" fill="url(#paint12_linear_75_9025)"/>
</g>
<defs>
<linearGradient id="paint0_linear_75_9025" x1="10.3889" y1="6.63567" x2="6.288" y2="1.26206" gradientUnits="userSpaceOnUse">
<stop offset="0.0006" stop-color="#0867DF"/>
<stop offset="0.4539" stop-color="#0668E1"/>
<stop offset="0.8591" stop-color="#0064E0"/>
</linearGradient>
<linearGradient id="paint1_linear_75_9025" x1="2.40517" y1="3.15469" x2="5.21659" y2="1.02028" gradientUnits="userSpaceOnUse">
<stop offset="0.1323" stop-color="#0064DF"/>
<stop offset="0.9988" stop-color="#0064E0"/>
</linearGradient>
<linearGradient id="paint2_linear_75_9025" x1="1.21338" y1="6.288" x2="2.34114" y2="3.44908" gradientUnits="userSpaceOnUse">
<stop offset="0.0147" stop-color="#0072EC"/>
<stop offset="0.6881" stop-color="#0064DF"/>
</linearGradient>
<linearGradient id="paint3_linear_75_9025" x1="1.06034" y1="8.33952" x2="1.19083" y2="6.60571" gradientUnits="userSpaceOnUse">
<stop offset="0.0731" stop-color="#007CF6"/>
<stop offset="0.9943" stop-color="#0072EC"/>
</linearGradient>
<linearGradient id="paint4_linear_75_9025" x1="1.1321" y1="9.27856" x2="1.03876" y2="8.58391" gradientUnits="userSpaceOnUse">
<stop offset="0.0731" stop-color="#007FF9"/>
<stop offset="1" stop-color="#007CF6"/>
</linearGradient>
<linearGradient id="paint5_linear_75_9025" x1="1.07723" y1="9.46347" x2="1.65894" y2="10.6973" gradientUnits="userSpaceOnUse">
<stop offset="0.0731" stop-color="#007FF9"/>
<stop offset="1" stop-color="#0082FB"/>
</linearGradient>
<linearGradient id="paint6_linear_75_9025" x1="10.0181" y1="3.49374" x2="10.7871" y2="2.43012" gradientUnits="userSpaceOnUse">
<stop offset="0.2799" stop-color="#007FF8"/>
<stop offset="0.9141" stop-color="#0082FB"/>
</linearGradient>
<linearGradient id="paint7_linear_75_9025" x1="15.8651" y1="2.11319" x2="17.4739" y2="8.03137" gradientUnits="userSpaceOnUse">
<stop stop-color="#0082FB"/>
<stop offset="0.9995" stop-color="#0081FA"/>
</linearGradient>
<linearGradient id="paint8_linear_75_9025" x1="17.8623" y1="8.2596" x2="16.8441" y2="10.3171" gradientUnits="userSpaceOnUse">
<stop offset="0.0619" stop-color="#0081FA"/>
<stop offset="1" stop-color="#0080F9"/>
</linearGradient>
<linearGradient id="paint9_linear_75_9025" x1="16.035" y1="11.4052" x2="16.9868" y2="10.7569" gradientUnits="userSpaceOnUse">
<stop stop-color="#027AF3"/>
<stop offset="1" stop-color="#0080F9"/>
</linearGradient>
<linearGradient id="paint10_linear_75_9025" x1="14.5421" y1="11.5315" x2="15.8647" y2="11.5315" gradientUnits="userSpaceOnUse">
<stop stop-color="#0377EF"/>
<stop offset="0.9994" stop-color="#0279F1"/>
</linearGradient>
<linearGradient id="paint11_linear_75_9025" x1="13.3923" y1="10.8052" x2="14.3431" y2="11.3646" gradientUnits="userSpaceOnUse">
<stop offset="0.0019" stop-color="#0471E9"/>
<stop offset="1" stop-color="#0377EF"/>
</linearGradient>
<linearGradient id="paint12_linear_75_9025" x1="10.492" y1="6.67895" x2="13.5379" y2="10.5085" gradientUnits="userSpaceOnUse">
<stop offset="0.2765" stop-color="#0867DF"/>
<stop offset="1" stop-color="#0471E9"/>
</linearGradient>
<clipPath id="clip0_75_9025">
<rect width="60.5" height="13.31" fill="white" transform="translate(0 0.345001)"/>
</clipPath>
</defs>
</svg>
